<?xml version="1.0" encoding="utf-8"?>
<!-- Generator: Adobe Illustrator 18.1.1, SVG Export Plug-In . SVG Version: 6.00 Build 0)  -->
<!DOCTYPE svg PUBLIC "-//W3C//DTD SVG 1.1//EN" "http://www.w3.org/Graphics/SVG/1.1/DTD/svg11.dtd">
<svg version="1.1" id="Layer_1" xmlns="http://www.w3.org/2000/svg" xmlns:xlink="http://www.w3.org/1999/xlink" x="0px" y="0px"
	 viewBox="0 0 112.1 216" enable-background="new 0 0 112.1 216" xml:space="preserve">
<g>
	<rect x="3.3" y="147.4" fill="#F44704" width="106.2" height="2"/>
</g>
<g>
	<g>
		<g>
			<g>
				<g>
					<path fill="#F44704" d="M4,61.2c0,1.2,0,2.5,0.1,3.9H1.8c-1.2-16.5,9.4-23.3,18.5-29.9c6.5-4.7,15.6-10.4,15.6-19.3
						c0-5.4-5.5-9.2-12.7-9.2c-5.5,0-12.1,1.4-13.5,5.2c2.4-0.9,9.3,0.9,9.3,7.2c0,5.6-4,8.3-8.1,8.3c-4.3,0-8.5-2.9-8.5-9.3
						C2.3,6,17.2,4,24.1,4c17.5,0,25.2,5.4,25.2,15.1c0,11.3-11.6,16.7-22.2,19.3c-10.8,2.6-15.6,6.4-20.1,13.3
						c2.6-5.3,7-4.5,12.1-4.5c8.1,0,13,4.3,21.7,4.3c3.7,0,6.8-2.8,7.6-6.9l2.1,0c-1.6,10.1-4.4,21-15.4,21C26,65.7,5.2,55,4,61.2z"
						/>
					<path fill="#F44704" d="M111.1,34.8c0,17.4-10.8,30.8-27.4,30.8c-16.6,0-27.4-13.4-27.4-30.8C56.3,17.4,67.1,4,83.7,4
						C100.4,4,111.1,17.4,111.1,34.8z M94.5,34.8c0-20.7-4.2-28.6-10.8-28.6C77.2,6.2,73,14.1,73,34.8s4.2,28.6,10.8,28.6
						C90.3,63.5,94.5,55.6,94.5,34.8z"/>
					<path fill="#F44704" d="M18.1,106.5c0,0-9.3,3.2-9.3,10.6c0,7.8,5.6,13.4,14.8,13.4c8.2,0,16-3,16-8.9c0-8.2-15.5-10.2-26-16.5
						l-1-0.6c-5.6-3.5-9.8-7.1-9.8-14C2.8,77.9,17,72,27.3,72C37.5,72,46,77.1,46,85.8c0,4.1-1.5,8.7-8.8,12.6 M32.1,95.8
						c0,0,7.8-1.7,7.8-9c0-6.6-2.4-11.7-12.1-11.7c-6.7,0-12.8,2.9-12.8,8.2c0,7.1,10.5,8.9,20.1,13.4l1.3,0.6
						c7.5,3.6,15.1,7.5,15.1,16.5c0,12.4-12.6,19.8-28.4,19.8c-11,0-21.3-5.4-21.3-15.9c0-7.5,8.5-12.3,15.1-15"/>
					<path fill="#F44704" d="M111.1,102.9c0,17.4-10.8,30.8-27.4,30.8c-16.6,0-27.4-13.4-27.4-30.8C56.3,85.4,67.1,72,83.7,72
						C100.4,72,111.1,85.4,111.1,102.9z M94.5,102.9c0-20.7-4.2-28.6-10.8-28.6c-6.6,0-10.8,7.9-10.8,28.6s4.2,28.6,10.8,28.6
						C90.3,131.5,94.5,123.6,94.5,102.9z"/>
				</g>
			</g>
		</g>
	</g>
	<g>
		<rect x="46.9" y="68.4" fill="#F44704" width="17" height="2"/>
	</g>
	<g>
		<rect x="54.4" y="62.4" fill="#F44704" width="2" height="13.9"/>
	</g>
</g>
<g>
	<path fill="#F44704" d="M3.2,187.1v-19.9h12.1v3.1H6.6v5.2h7.9v3H6.6v5.5h8.7v3.1H3.2z"/>
	<path fill="#F44704" d="M31.8,187.4h-0.4l-9.2-20.1H26l5.6,13.2l5.6-13.2h3.8L31.8,187.4z"/>
	<path fill="#F44704" d="M48.2,187.1v-19.9h12.1v3.1h-8.7v5.2h7.9v3h-7.9v5.5h8.7v3.1H48.2z"/>
	<path fill="#F44704" d="M85.2,187.5l-12.4-13.1v12.7h-3.4V167l0.5-0.1l12.3,12.9v-12.5h3.4v20.2L85.2,187.5z"/>
	<path fill="#F44704" d="M103.3,170.4v16.8h-3.4v-16.8h-6.3v-3.1h16v3.1H103.3z"/>
	<path fill="#F44704" d="M16.9,213.6v-19.9h3.4v19.9H16.9z"/>
	<path fill="#F44704" d="M45.7,214l-12.4-13.1v12.7h-3.4v-20.1l0.5-0.1l12.3,12.9v-12.5h3.4v20.2L45.7,214z"/>
	<path fill="#F44704" d="M59,196.8v5.8h7.7v3H59v8h-3.4v-19.9h12.1v3.1H59z"/>
	<path fill="#F44704" d="M85,213.9c-5.7,0-9.9-4.4-9.9-10.2c0-5.9,4.4-10.3,10.1-10.3s9.9,4.4,9.9,10.3
		C95.2,209.5,90.8,213.9,85,213.9z M85.1,196.4c-3.8,0-6.4,3.1-6.4,7.2c0,4.1,2.6,7.2,6.4,7.2c3.8,0,6.4-3.1,6.4-7.2
		C91.5,199.5,88.9,196.4,85.1,196.4z"/>
</g>
</svg>
