<?xml version="1.0" encoding="utf-8"?>
<!-- Generator: Adobe Illustrator 18.1.1, SVG Export Plug-In . SVG Version: 6.00 Build 0)  -->
<!DOCTYPE svg PUBLIC "-//W3C//DTD SVG 1.1//EN" "http://www.w3.org/Graphics/SVG/1.1/DTD/svg11.dtd">
<svg version="1.1" id="Layer_1" xmlns="http://www.w3.org/2000/svg" xmlns:xlink="http://www.w3.org/1999/xlink" x="0px" y="0px"
	 viewBox="0 49.2 612 709.4" enable-background="new 0 49.2 612 709.4" xml:space="preserve">
<g>
	<g>
		<g>
			<g>
				<path d="M18.8,361.9c-0.4,6.6-0.4,14.2,0.4,21.2H6.8C0.2,292.9,58.6,255.7,107.7,219c35.4-26.1,85.4-56.6,85.4-105.7
					c0-29.2-30.1-50.4-69.9-50.4c-30.1,0-66.3,8-73.9,28.7c13.3-4.9,50.9,5.3,50.9,39.4c0,30.5-21.7,45.6-44.2,45.6
					C32.5,176.6,9,160.6,9,125.7c0-65,81.4-76.1,119.4-76.1c95.5,0,138,29.2,138,82.7c0,61.9-63.2,91.6-121.2,105.7
					C86.4,252.6,59.9,273,35.6,311c14.2-29.2,38.5-24.8,66.3-24.8c44.2,0,71.2,23.4,119,23.4c20.3,0,37.2-15.5,41.6-38l11.5,0.4
					c-8.4,55.3-23.9,115-84.5,115C139.5,386.7,26.3,328.3,18.8,361.9z"/>
				<path d="M605.7,217.7c0,95.5-58.8,168.5-149.9,168.5s-149.9-73.4-149.9-168.5c0-95.5,58.8-168.5,149.9-168.5
					C546.4,49.2,605.7,122.6,605.7,217.7z M514.6,217.7c0-113.2-23-156.6-58.8-156.6s-58.8,43.3-58.8,156.6s23,156.6,58.8,156.6
					S514.6,331.4,514.6,217.7z"/>
				<path d="M96.6,610c0,0-50.9,17.7-50.9,57.9c0,42.5,31,73.4,81.4,73.4c44.7,0,87.6-16.4,87.6-49.1c0-44.7-84.9-55.7-142.4-90.2
					l-5.7-3.5C36,579.9,13,560.5,13,522.5c0-69,77.8-101.3,134-101.3c55.7,0,102.2,27.9,102.2,75.2c0,22.1-8,47.8-47.8,69
					 M172.7,551.6c0,0,42.9-9.3,42.9-49.1c0-36.3-13.3-64.1-66.3-64.1c-36.7,0-69.9,15.9-69.9,45.1c0,38.9,57.5,48.7,109.7,73
					l7.1,3.5c41.1,19.9,82.7,41.1,82.7,90.2c0,68.1-69,108.4-155.2,108.4C63,758.6,6.8,729,6.8,671.9c0-40.7,46.4-67.2,82.7-82.3"/>
				<path d="M605.7,590.1c0,95.5-58.8,168.5-149.9,168.5s-149.9-73.4-149.9-168.5c0-95.5,58.8-168.5,149.9-168.5
					C546.4,421.6,605.7,494.6,605.7,590.1z M514.6,590.1c0-113.2-23-156.6-58.8-156.6s-58.8,43.3-58.8,156.6s23,156.6,58.8,156.6
					S514.6,703.4,514.6,590.1z"/>
			</g>
		</g>
	</g>
	<g>
		<g>
			<rect x="254.5" y="401.3" width="92.9" height="11.1"/>
		</g>
		<g>
			<rect x="295.2" y="369" width="11.1" height="76.5"/>
		</g>
	</g>
</g>
</svg>
