<?xml version="1.0" encoding="utf-8"?>
<!-- Generator: Adobe Illustrator 18.1.1, SVG Export Plug-In . SVG Version: 6.00 Build 0)  -->
<!DOCTYPE svg PUBLIC "-//W3C//DTD SVG 1.1//EN" "http://www.w3.org/Graphics/SVG/1.1/DTD/svg11.dtd">
<svg version="1.1" id="Layer_1" xmlns="http://www.w3.org/2000/svg" xmlns:xlink="http://www.w3.org/1999/xlink" x="0px" y="0px"
	 viewBox="0 35.9 300 211.7" enable-background="new 0 35.9 300 211.7" xml:space="preserve">
<g>
	<g>
		<rect x="163" y="35.9" width="1.9" height="191.5"/>
	</g>
	<g>
		<path d="M5.8,247.6l-0.7-1.7h-3l-0.7,1.7H0l3.5-7.6h0.2l3.5,7.6H5.8z M3.6,242.2l-1,2.5h2.2L3.6,242.2z"/>
		<path d="M18.7,247.7c-2.4,0-4-1.6-4-3.9c0-2.2,1.7-3.9,4-3.9c0.9,0,1.9,0.3,2.4,0.7l-0.5,1c-0.6-0.3-1.4-0.6-2-0.6
			c-1.6,0-2.7,1.2-2.7,2.7c0,1.6,1,2.7,2.7,2.7c0.7,0,1.5-0.2,2.1-0.6l0.3,1C20.6,247.3,19.7,247.7,18.7,247.7z"/>
		<path d="M29.4,247.6l-0.7-1.7h-3l-0.7,1.7h-1.4l3.5-7.6h0.2l3.5,7.6H29.4z M27.2,242.2l-1,2.5h2.2L27.2,242.2z"/>
		<path d="M33.4,247.6V240h1.3v6.4h3.4v1.2h-4.6l0,0L33.4,247.6L33.4,247.6z"/>
		<path d="M40.8,247.6V240h1.3v7.6H40.8z"/>
		<path d="M47,241.1v2.2h2.9v1.2H47v3h-1.3v-7.6h4.6v1.2L47,241.1L47,241.1z"/>
		<path d="M56.6,247.7c-2.2,0-3.8-1.6-3.8-3.9c0-2.3,1.6-3.9,3.8-3.9s3.8,1.6,3.8,3.9C60.5,245.9,58.8,247.7,56.6,247.7z M56.7,241
			c-1.5,0-2.4,1.2-2.4,2.8s1,2.8,2.4,2.8s2.4-1.2,2.4-2.8S58.1,241,56.7,241z"/>
		<path d="M67.8,247.6l-1.6-2.8c-0.1,0-0.2,0-0.3,0c-0.2,0-0.5,0-0.8,0v2.8h-1.3V240c0.6-0.1,1.3-0.1,2-0.1c2.2,0,3.1,1,3.1,2.4
			c0,0.9-0.6,1.7-1.5,2.2l2,3h-1.6V247.6z M65.8,241.1c-0.3,0-0.6,0-0.9,0.1v2.5c0.2,0,0.5,0,0.7,0c1.2,0,1.7-0.6,1.7-1.4
			C67.4,241.5,66.8,241.1,65.8,241.1z"/>
		<path d="M78.1,247.7l-4.7-5v4.9h-1.3V240h0.2l4.7,5v-4.7h1.2v7.7L78.1,247.7z"/>
		<path d="M81.8,247.6V240H83v7.6H81.8z"/>
		<path d="M91.6,247.6l-0.7-1.7h-3l-0.7,1.7h-1.4l3.5-7.6h0.2l3.5,7.6H91.6z M89.3,242.2l-1,2.5h2.2L89.3,242.2z"/>
		<path d="M102.6,247.7c-0.8,0-1.7-0.3-2.4-0.7l0.5-1.2c0.6,0.5,1.3,0.7,2,0.7c0.8,0,1.2-0.5,1.2-1c0-0.6-0.2-0.8-1.4-1.4
			c-1.3-0.6-1.9-1.3-1.9-2.2c0-1,0.9-2.1,2.5-2.1c0.7,0,1.5,0.2,1.9,0.6l-0.5,1.2c-0.3-0.2-1-0.6-1.5-0.6c-0.8,0-1.2,0.5-1.2,0.9
			c0,0.5,0.3,0.8,1.3,1.3c1.5,0.7,2,1.3,2,2.3C105,246.6,104.1,247.7,102.6,247.7z"/>
		<path d="M111,247.7c-1.9,0-3-1-3-3V240h1.3v4.6c0,1.3,0.7,2,1.7,2s1.7-0.7,1.7-2V240h1.3v4.6C114,246.5,112.9,247.7,111,247.7z"/>
		<path d="M123.7,247.6l-0.1-4.7l-2.4,3.4h-0.1l-2.4-3.4l-0.1,4.7h-1.3l0.3-7.6h0.2l3.4,4.6l3.2-4.6h0.2l0.3,7.6H123.7z"/>
		<path d="M134.6,247.6l-0.1-4.7l-2.4,3.4H132l-2.4-3.4l-0.1,4.7h-1.3l0.3-7.6h0.2l3.4,4.6l3.2-4.6h0.2l0.3,7.6H134.6z"/>
		<path d="M139.2,247.6V240h4.6v1.2h-3.2v2h3v1.2h-3v2.1h3.4v1.2h-4.7L139.2,247.6L139.2,247.6z"/>
		<path d="M151.3,247.6l-1.6-2.8c-0.1,0-0.2,0-0.3,0c-0.2,0-0.5,0-0.8,0v2.8h-1.3V240c0.6-0.1,1.3-0.1,2-0.1c2.2,0,3.1,1,3.1,2.4
			c0,0.9-0.6,1.7-1.5,2.2l2,3h-1.6L151.3,247.6L151.3,247.6z M149.4,241.1c-0.3,0-0.6,0-0.9,0.1v2.5c0.2,0,0.5,0,0.7,0
			c1.2,0,1.7-0.6,1.7-1.4C150.9,241.5,150.3,241.1,149.4,241.1z"/>
		<path d="M167.1,247.6l-0.1-4.7l-2.4,3.4h-0.1l-2.4-3.4l-0.1,4.7h-1.3l0.3-7.6h0.2l3.4,4.6l3.2-4.6h0.2l0.3,7.6H167.1z"/>
		<path d="M174.6,247.7c-1.9,0-3-1-3-3V240h1.3v4.6c0,1.3,0.7,2,1.7,2s1.7-0.7,1.7-2V240h1.3v4.6
			C177.6,246.5,176.5,247.7,174.6,247.7z"/>
		<path d="M182.8,247.7c-0.8,0-1.7-0.3-2.4-0.7l0.5-1.2c0.6,0.5,1.3,0.7,2,0.7c0.8,0,1.2-0.5,1.2-1c0-0.6-0.2-0.8-1.4-1.4
			c-1.3-0.6-1.9-1.3-1.9-2.2c0-1,0.9-2.1,2.5-2.1c0.7,0,1.5,0.2,1.9,0.6l-0.5,1.2c-0.3-0.2-1-0.6-1.5-0.6c-0.8,0-1.2,0.5-1.2,0.9
			c0,0.5,0.3,0.8,1.3,1.3c1.5,0.7,2,1.3,2,2.3C185.4,246.6,184.5,247.7,182.8,247.7z"/>
		<path d="M188.5,247.6V240h1.3v7.6H188.5z"/>
		<path d="M197.1,247.7c-2.4,0-4-1.6-4-3.9c0-2.2,1.7-3.9,4-3.9c0.9,0,1.9,0.3,2.4,0.7l-0.5,1c-0.6-0.3-1.4-0.6-2-0.6
			c-1.6,0-2.7,1.2-2.7,2.7c0,1.6,1,2.7,2.7,2.7c0.7,0,1.5-0.2,2.1-0.6l0.3,1C198.9,247.3,198,247.7,197.1,247.7z"/>
		<path d="M211.5,247.7c-2.4,0-4-1.6-4-3.9c0-2.2,1.7-3.9,4-3.9c0.9,0,1.9,0.3,2.4,0.7l-0.5,1c-0.6-0.3-1.4-0.6-2-0.6
			c-1.6,0-2.7,1.2-2.7,2.7c0,1.6,1,2.7,2.7,2.7c0.7,0,1.5-0.2,2.1-0.6l0.3,1C213.4,247.3,212.5,247.7,211.5,247.7z"/>
		<path d="M217,247.6V240h4.6v1.2h-3.4v2h3v1.2h-3v2.1h3.4v1.2L217,247.6L217,247.6z"/>
		<path d="M224.8,247.6V240h1.3v6.4h3.4v1.2L224.8,247.6L224.8,247.6L224.8,247.6z"/>
		<path d="M232.2,247.6V240h4.6v1.2h-3.4v2h3v1.2h-3v2.1h3.4v1.2L232.2,247.6L232.2,247.6z"/>
		<path d="M242.2,247.6c-0.7,0-1.4-0.1-2.1-0.1V240c0.6-0.1,1.3-0.1,2-0.1c2,0,3,0.9,3,2c0,0.8-0.3,1.4-1.3,1.7
			c1.2,0.3,1.5,0.9,1.5,1.9C245.3,246.5,244.3,247.6,242.2,247.6z M242.3,241c-0.3,0-0.7,0-0.9,0.1v2.1c0.2,0,0.5,0,0.8,0
			c1,0,1.5-0.5,1.5-1.2C243.8,241.4,243.3,241,242.3,241z M242.3,244.1c-0.2,0-0.6,0-0.8,0v2.3c0.2,0,0.6,0,0.9,0
			c1,0,1.5-0.5,1.5-1.2C243.9,244.7,243.3,244.1,242.3,244.1z"/>
		<path d="M252.6,247.6l-1.6-2.8c-0.1,0-0.2,0-0.3,0c-0.2,0-0.5,0-0.8,0v2.8h-1.3V240c0.6-0.1,1.3-0.1,2-0.1c2.2,0,3.1,1,3.1,2.4
			c0,0.9-0.6,1.7-1.5,2.2l2,3h-1.6L252.6,247.6L252.6,247.6z M250.6,241.1c-0.3,0-0.6,0-0.9,0.1v2.5c0.2,0,0.5,0,0.7,0
			c1.2,0,1.7-0.6,1.7-1.4C252.2,241.5,251.7,241.1,250.6,241.1z"/>
		<path d="M262.2,247.6l-0.7-1.7h-3l-0.7,1.7h-1.4l3.5-7.6h0.2l3.5,7.6H262.2z M259.9,242.2l-1,2.5h2.2L259.9,242.2z"/>
		<path d="M268.4,241.1v6.4h-1.3v-6.4h-2.4v-1.2h6.1v1.2H268.4z"/>
		<path d="M273.7,247.6V240h1.3v7.6H273.7z"/>
		<path d="M282.1,247.7c-2.2,0-3.8-1.6-3.8-3.9c0-2.3,1.6-3.9,3.8-3.9s3.8,1.6,3.8,3.9C285.9,245.9,284.2,247.7,282.1,247.7z
			 M282.1,241c-1.5,0-2.4,1.2-2.4,2.8s1,2.8,2.4,2.8s2.4-1.2,2.4-2.8S283.5,241,282.1,241z"/>
		<path d="M295.1,247.7l-4.7-5v4.9h-1.3V240h0.2l4.7,5v-4.7h1.3v7.7L295.1,247.7z"/>
	</g>
	<path d="M263,134.9c-0.9,0.9-1.7,1.9-2.7,2.7c-1.3,0.9-2.5,1.9-4,2.5c0.2-0.5,0.7-0.8,0.9-1.3c0.3-0.8,0.6-1.7,0.8-2.7
		c-0.9,0.1-1.9,0.1-2.5,0.5c-2.1,1-4,2.3-6.1,3.6s-2.1,1.3-1.6,3.7c0.6,3.6,1.9,6.8,4,9.7c4.4,5.7,7.6,11.9,9.3,19
		c2.7,11.9-2.5,19.5-11.7,24.6c-0.5,0.2-0.8,0.5-1.2,0.6c-2.5,1.2-2.5,1.2-2.2,3.9c0.5,3.8,0.9,7.7,1,11.6c-0.5-2.3-1.2-4.6-1.5-6.8
		c-0.5-2.3-0.6-4.6-0.9-7.1c-1.3,0.2-2.3,0.6-3.4,0.8c-4.9,0.9-9.7,0.8-14.5-0.6c-8.1-2.5-12.7-9-13.1-17.8
		c-0.2-7.9,1.6-15.4,5-22.4c0.7-1.5,1.4-3.1,2-4.7c0.2-0.8,0.2-1.6,0.3-2.8c-2.2,0-4.2,0.2-6.1-0.1c-3-0.5-6-1-8.8-2.3
		c-7.7-3.5-11.9-12.4-10.2-20.9c1.9-9.1,6-17.2,10.9-25.1c0.9-1.6,2-3.1,3-4.6c-2.5-1.9-5.1-3.5-7.4-5.4
		c-6.7-5.8-10.3-13.1-10.2-22.2c0.1-5.6,2-10.3,6.2-14c3.6-3.1,7.3-3.6,11.3-1c8.6,5.1,12.4,12.8,11.8,22.7
		c-0.5,7.5-3.1,14.3-7.4,21c1.9-0.1,3.6,0,5.1-0.5c3.7-0.9,7.4-2.1,11.1-3.1c0.9-0.2,1.2-0.8,1-1.9c-1.2-8.4-2.2-17-3.2-25.4
		c-0.2-2-0.9-3.9-1.3-5.9c-0.1-0.9,0.3-2.1,0.8-2.9c0.8-1.2,2-1.5,3.2-0.8c1.2,0.6,1.6,1.6,1.4,2.9c-0.2,1.5-1.6,1.5-2.5,1.6
		c-0.1-0.7-0.3-1.4-0.5-2.2c-1.3,0.8-1.5,1.6-0.7,2.5c1.9,1.9,2.2,4.3,2.5,6.7c0.8,8,1.9,16,2.7,24.1c1.9-0.2,3.7-0.6,5.4-0.6
		c2.2,0,4.4,0,6.5,0.6c5.7,1.4,8.2,5.9,6.9,11.6c-0.1,0.5-0.1,0.8-0.2,1.2c-1.6,2.7-1.5,5.6-1.4,8.6c0.2,4.6-1.2,8.9-2.5,13.2
		c-0.8,2.7-1.3,5.4-1.9,8.2c0.1,0.1,0.2,0.1,0.5,0.1c2.2-1,4.5-2.2,6.7-3.1c1.6-0.7,3.4-1.3,5.1-2c1.5-0.6,2.8-0.3,3.9,0.8
		C263,133.8,263,134.4,263,134.9z M238,146.6c-2.3,0.9-4.4,2.2-6.6,2.9c-2.8,0.8-4.2,2.2-5,5.1c-1.9,6.9-2.9,13.9-2,21
		c0.5,3.7,1.7,7.2,4.6,9.7c3.2,2.9,7.2,3.4,11.3,2.9c3.1-0.5,2.9,0.2,2.4-3c-0.1-0.7-0.1-1.5-0.2-2.2c-1.2-8.9-2.2-17.9-3.4-26.9
		C238.8,152.8,238.4,149.7,238,146.6z M209.9,98.5c1-3.1,2.1-5.8,2.9-8.7c1.7-6.1,3.2-12.3,2.5-18.6c-0.5-3.7-1.5-7.3-3.8-10.3
		c-2.4-3.2-5.4-3.8-8.7-1.5c-4.7,3.6-6.9,8.6-6.2,14.3c0.9,8,4.3,15,9.6,21C207.2,96,208.5,97.1,209.9,98.5z M232,98.7
		c-0.5,0.1-0.7,0.2-0.9,0.2c-5.4,2-11,2.9-16.8,2.2c-0.3-0.1-0.9,0.2-1.2,0.6c-3.9,6.4-7.9,12.6-10.1,19.9c-2.9,9.4-0.7,17.5,6,24.5
		c3,3.2,6.8,4.6,11.6,4.3c-0.3-1.4-0.6-2.7-0.9-3.8c-1.9-5.3-3.9-10.6-5.7-16.1c-1.6-4.6-2.4-9.5-1.6-14.3
		c1.2-7.1,5.7-11.3,12.1-13.8c2.4-0.9,5.1-1.5,7.7-2.3C232.1,99.9,232.1,99.4,232,98.7z M232.6,103.6c-5.3,0.1-10.6,4.3-11.7,9.3
		c-0.9,3.9,0.1,7.7,1.3,11.6c1.5,4.6,3.2,9.3,4.4,14c0.8,3.4,0.9,6.8,1.5,10.3c0.3-0.2,0.9-0.5,1.4-0.7c2.1-1.2,4-2.5,6.2-3.6
		c1.6-0.8,1.9-1.9,1.6-3.5c-1-7.5-2-15-2.9-22.6C233.8,113.4,233.2,108.5,232.6,103.6z M244.4,187.3c8.6-2,14.1-11.1,11.9-19.3
		c-2.3-9-7.7-16.8-11.2-25.4c-0.6,0.3-1.2,0.6-1.7,0.9c-3.8,2.2-3.7,2.2-3.2,6.5c1.2,9.1,2.1,18.3,3.1,27.4
		C243.6,180.7,244,183.9,244.4,187.3z M234.9,103.2c1.5,13,2.9,25.8,4.4,39c1.6-0.9,3.1-1.9,4.6-2.7c0.8-0.5,1-0.9,1-1.9
		c0.1-2,0.1-4,0.3-6c0.6-3.2,1.5-6.5,2-9.8c0.7-4.6,0.3-9.1-1.9-13.4C243.4,104.8,238.8,102.4,234.9,103.2z M250.7,110.6
		c0.7-2.7,0.6-4-0.2-6.1c-2.3-5.6-7.9-8.3-14.2-7.2c-2.2,0.3-2.2,0.5-1.6,2.9C241.8,100.6,248,102.8,250.7,110.6z"/>
</g>
<g>
	<g>
		<g>
			<g>
				<path d="M2.2,124.1c-0.1,1.5-0.1,3.2,0.1,4.8h-2.8c-1.5-20.4,11.7-28.8,22.8-37.1c8-5.9,19.3-12.8,19.3-23.9
					c0-6.6-6.8-11.4-15.8-11.4c-6.8,0-15,1.8-16.7,6.5c3-1.1,11.5,1.2,11.5,8.9c0,6.9-4.9,10.3-10,10.3C5.3,82.2,0,78.6,0,70.7
					C0,56,18.4,53.5,27,53.5c21.6,0,31.2,6.6,31.2,18.7c0,14-14.3,20.7-27.4,23.9C17.5,99.4,11.5,104,6,112.6
					c3.2-6.6,8.7-5.6,15-5.6c10,0,16.1,5.3,26.9,5.3c4.6,0,8.4-3.5,9.4-8.6l2.6,0.1c-1.9,12.5-5.4,26-19.1,26
					C29.4,129.7,3.8,116.5,2.2,124.1z"/>
				<path d="M134.8,91.5c0,21.6-13.3,38.1-33.9,38.1S67,113,67,91.5c0-21.6,13.3-38.1,33.9-38.1C121.5,53.4,134.8,70,134.8,91.5z
					 M114.2,91.5c0-25.6-5.2-35.4-13.3-35.4s-13.3,9.8-13.3,35.4s5.2,35.4,13.3,35.4S114.2,117.2,114.2,91.5z"/>
				<path d="M19.7,180.2c0,0-11.5,4-11.5,13.1c0,9.6,7,16.6,18.4,16.6c10.1,0,19.8-3.7,19.8-11.1c0-10.1-19.2-12.6-32.2-20.4
					l-1.3-0.8C6,173.4,0.8,169,0.8,160.4c0-15.6,17.6-22.9,30.3-22.9c12.6,0,23.1,6.3,23.1,17c0,5-1.8,10.8-10.8,15.6 M36.9,167
					c0,0,9.7-2.1,9.7-11.1c0-8.2-3-14.5-15-14.5c-8.3,0-15.8,3.6-15.8,10.2c0,8.8,13,11,24.8,16.5l1.6,0.8
					c9.3,4.5,18.7,9.3,18.7,20.4c0,15.4-15.6,24.5-35.1,24.5c-13.7,0-26.4-6.7-26.4-19.6c0-9.2,10.5-15.2,18.7-18.6"/>
				<path d="M134.8,175.7c0,21.6-13.3,38.1-33.9,38.1S67,197.2,67,175.7c0-21.6,13.3-38.1,33.9-38.1
					C121.5,137.6,134.8,154.1,134.8,175.7z M114.2,175.7c0-25.6-5.2-35.4-13.3-35.4s-13.3,9.8-13.3,35.4s5.2,35.4,13.3,35.4
					S114.2,201.3,114.2,175.7z"/>
			</g>
		</g>
	</g>
	<g>
		<g>
			<rect x="55.4" y="133" width="21" height="2.5"/>
		</g>
		<g>
			<rect x="64.6" y="125.7" width="2.5" height="17.3"/>
		</g>
	</g>
</g>
</svg>
