<?xml version="1.0" encoding="utf-8"?>
<!-- Generator: Adobe Illustrator 18.1.1, SVG Export Plug-In . SVG Version: 6.00 Build 0)  -->
<!DOCTYPE svg PUBLIC "-//W3C//DTD SVG 1.1//EN" "http://www.w3.org/Graphics/SVG/1.1/DTD/svg11.dtd">
<svg version="1.1" id="Layer_1" xmlns="http://www.w3.org/2000/svg" xmlns:xlink="http://www.w3.org/1999/xlink" x="0px" y="0px"
	 viewBox="0 0 135.7 300" enable-background="new 0 0 135.7 300" xml:space="preserve">
<g>
	<g>
		<g>
			<g>
				<path d="M2.2,124.1c-0.1,1.5-0.1,3.2,0.1,4.8h-2.8c-1.5-20.4,11.7-28.8,22.8-37.1c8-5.9,19.3-12.8,19.3-23.9
					c0-6.6-6.8-11.4-15.8-11.4c-6.8,0-15,1.8-16.7,6.5c3-1.1,11.5,1.2,11.5,8.9c0,6.9-4.9,10.3-10,10.3c-5.3,0-10.6-3.6-10.6-11.5
					c0-14.7,18.4-17.2,27-17.2c21.6,0,31.2,6.6,31.2,18.7c0,14-14.3,20.7-27.4,23.9c-13.3,3.3-19.3,7.9-24.8,16.5
					c3.2-6.6,8.7-5.6,15-5.6c10,0,16.1,5.3,26.9,5.3c4.6,0,8.4-3.5,9.4-8.6l2.6,0.1c-1.9,12.5-5.4,26-19.1,26
					C29.4,129.7,3.8,116.5,2.2,124.1z"/>
				<path d="M134.8,91.5c0,21.6-13.3,38.1-33.9,38.1c-20.6,0-33.9-16.6-33.9-38.1c0-21.6,13.3-38.1,33.9-38.1
					C121.5,53.4,134.8,70,134.8,91.5z M114.2,91.5c0-25.6-5.2-35.4-13.3-35.4s-13.3,9.8-13.3,35.4s5.2,35.4,13.3,35.4
					S114.2,117.2,114.2,91.5z"/>
				<path d="M19.7,180.2c0,0-11.5,4-11.5,13.1c0,9.6,7,16.6,18.4,16.6c10.1,0,19.8-3.7,19.8-11.1c0-10.1-19.2-12.6-32.2-20.4
					l-1.3-0.8C6,173.4,0.8,169,0.8,160.4c0-15.6,17.6-22.9,30.3-22.9c12.6,0,23.1,6.3,23.1,17c0,5-1.8,10.8-10.8,15.6 M36.9,167
					c0,0,9.7-2.1,9.7-11.1c0-8.2-3-14.5-15-14.5c-8.3,0-15.8,3.6-15.8,10.2c0,8.8,13,11,24.8,16.5l1.6,0.8
					c9.3,4.5,18.7,9.3,18.7,20.4c0,15.4-15.6,24.5-35.1,24.5c-13.7,0-26.4-6.7-26.4-19.6c0-9.2,10.5-15.2,18.7-18.6"/>
				<path d="M134.8,175.7c0,21.6-13.3,38.1-33.9,38.1c-20.6,0-33.9-16.6-33.9-38.1c0-21.6,13.3-38.1,33.9-38.1
					C121.5,137.6,134.8,154.1,134.8,175.7z M114.2,175.7c0-25.6-5.2-35.4-13.3-35.4s-13.3,9.8-13.3,35.4s5.2,35.4,13.3,35.4
					S114.2,201.3,114.2,175.7z"/>
			</g>
		</g>
	</g>
	<g>
		<g>
			<rect x="55.4" y="133" width="21" height="2.5"/>
		</g>
		<g>
			<rect x="64.6" y="125.7" width="2.5" height="17.3"/>
		</g>
	</g>
</g>
</svg>
