<?xml version="1.0" encoding="utf-8"?>
<!-- Generator: Adobe Illustrator 18.1.1, SVG Export Plug-In . SVG Version: 6.00 Build 0)  -->
<!DOCTYPE svg PUBLIC "-//W3C//DTD SVG 1.1//EN" "http://www.w3.org/Graphics/SVG/1.1/DTD/svg11.dtd">
<svg version="1.1" id="Layer_1" xmlns="http://www.w3.org/2000/svg" xmlns:xlink="http://www.w3.org/1999/xlink" x="0px" y="0px"
	 viewBox="0 0 180.3 214" enable-background="new 0 0 180.3 214" xml:space="preserve">
<g>
	<g>
		<g>
			<g>
				<path fill="#F44704" d="M3.6,94.2c-0.1,2-0.1,4.2,0.1,6.4H0c-2-27.2,15.6-38.4,30.4-49.4c10.6-7.8,25.7-17.1,25.7-31.9
					c0-8.8-9-15.2-21-15.2c-9.1,0-20,2.3-22.2,8.6c4-1.5,15.3,1.6,15.3,11.8c0,9.2-6.6,13.7-13.4,13.7c-7.1,0-14.1-4.8-14.1-15.4
					C0.8,3.3,25.4,0,36.9,0c28.8,0,41.6,8.8,41.6,24.9c0,18.6-19.1,27.6-36.5,31.9c-17.7,4.3-25.7,10.6-33.1,22
					c4.2-8.8,11.6-7.5,20-7.5c13.4,0,21.4,7.1,35.9,7.1c6.1,0,11.2-4.6,12.5-11.4l3.5,0.1c-2.6,16.6-7.2,34.6-25.4,34.6
					C39.9,101.6,5.8,84.1,3.6,94.2z"/>
				<path fill="#F44704" d="M180.3,50.8c0,28.7-17.7,50.8-45.1,50.8c-27.4,0-45.1-22.1-45.1-50.8C90,22.1,107.7,0,135.1,0
					C162.6,0,180.3,22.1,180.3,50.8z M152.9,50.8c0-34.1-6.9-47.2-17.8-47.2s-17.8,13-17.8,47.2S124.3,98,135.1,98
					S152.9,84.9,152.9,50.8z"/>
				<path fill="#F44704" d="M26.9,168.9c0,0-15.3,5.3-15.3,17.5c0,12.8,9.3,22.1,24.5,22.1c13.5,0,26.4-4.9,26.4-14.7
					c0-13.5-25.5-16.8-42.9-27.1l-1.7-1c-9.2-5.8-16.2-11.7-16.2-23.1c0-20.8,23.4-30.4,40.4-30.4c16.8,0,30.8,8.4,30.8,22.6
					c0,6.7-2.4,14.4-14.4,20.8 M49.9,151.3c0,0,12.9-2.8,12.9-14.8c0-11-4-19.3-20-19.3c-11.1,0-21.1,4.8-21.1,13.6
					c0,11.7,17.3,14.7,33.1,22l2.1,1c12.4,6,24.9,12.4,24.9,27.2c0,20.5-20.7,32.6-46.8,32.6c-18.2,0-35.2-8.9-35.2-26.2
					c0-12.3,14-20.3,24.9-24.7"/>
				<path fill="#F44704" d="M180.3,162.9c0,28.7-17.7,50.8-45.1,50.8c-27.4,0-45.1-22.1-45.1-50.8c0-28.7,17.7-50.8,45.1-50.8
					C162.6,112.1,180.3,134.2,180.3,162.9z M152.9,162.9c0-34.1-6.9-47.2-17.8-47.2s-17.8,13-17.8,47.2s6.9,47.2,17.8,47.2
					S152.9,197.1,152.9,162.9z"/>
			</g>
		</g>
	</g>
	<g>
		<g>
			<rect x="74.6" y="106" fill="#F44704" width="28" height="3.3"/>
		</g>
		<g>
			<rect x="86.8" y="96.3" fill="#F44704" width="3.3" height="23"/>
		</g>
	</g>
</g>
</svg>
