<?xml version="1.0" encoding="utf-8"?>
<!-- Generator: Adobe Illustrator 18.1.1, SVG Export Plug-In . SVG Version: 6.00 Build 0)  -->
<!DOCTYPE svg PUBLIC "-//W3C//DTD SVG 1.1//EN" "http://www.w3.org/Graphics/SVG/1.1/DTD/svg11.dtd">
<svg version="1.1" id="Layer_1" xmlns="http://www.w3.org/2000/svg" xmlns:xlink="http://www.w3.org/1999/xlink" x="0px" y="0px"
	 viewBox="0 0 132.2 230.8" enable-background="new 0 0 132.2 230.8" xml:space="preserve">
<g>
	<g>
		<path d="M44.5,230c-0.3-2.1-0.4-4.3-0.4-6.4c0-2.1,0.1-4.2,0.2-6.3l0.5-6.3l0.6-6.3c0.4-4.2,0.9-8.4,1.3-12.6
			c0.5-4.2,1-8.4,1.6-12.6c0.5-4.2,1.2-8.4,1.9-12.5c0.7-4.2,1.4-8.3,2.2-12.5c0.8-4.2,1.6-8.3,2.4-12.4c0.8-4.1,1.7-8.3,2.7-12.4
			c0.9-4.1,1.9-8.2,2.9-12.3c1-4.1,2-8.2,3.2-12.3c1.1-4.1,2.2-8.1,3.4-12.2c1.2-4.1,2.3-8.1,3.6-12.2c1.2-4,2.5-8.1,3.7-12.1
			l3.9-12.1c1.3-4,2.6-8,4-12c1.4-4,2.8-8,4.2-12l0.5-1.3l1.4-0.5c0.7-0.3,1.3-0.7,1.8-1.3c0.5-0.6,0.9-1.4,1.1-2.2
			c0.5-1.7,0.1-3.7-0.8-4.6c-0.2-0.2-0.4-0.4-0.6-0.5c-0.1-0.1-0.2-0.1-0.4-0.2l0,0l0,0l0,0c0,0,0.3,0.1,0.1,0l0,0l-0.1,0L89,21.8
			c-0.1,0-0.2-0.1-0.2-0.1c0,0,0,0,0,0c0,0-0.2,0-0.2,0c0,0,0,0,0,0c0.1,0,0.3-0.2,0.3-0.3c0-0.1,0.1-0.1,0-0.3
			c0-0.1-0.1-0.3-0.3-0.5c-0.2-0.2-0.5-0.4-0.8-0.4c-0.5-0.1-0.4,0.1-0.2-0.1c0.2-0.1,0.6-0.4,0.9-0.7l0.1-0.1
			c1.3-1.1,3.3-1,4.5,0.3c1.1,1.3,1,3.3-0.3,4.5c0,0,0,0,0,0c-0.6,0.5-1.3,1.1-2.2,1.5c-0.9,0.4-2.1,1-3.9,0.7
			c-0.9-0.2-1.8-0.6-2.5-1.3c-0.7-0.7-1-1.4-1.2-2.2c-0.4-1.5-0.2-2.8,0.3-4.1c0.5-1.2,1.7-2.4,3-2.9c0.6-0.3,1.3-0.4,1.9-0.4
			c0.3,0,0.6,0,0.9,0c0.3,0,0.6,0,0.9,0.1l0.5,0.1c0.1,0,0.2,0,0.3,0.1l0.2,0.1l0.1,0l0.2,0.1l0,0l0.1,0c0.5,0.2,0.9,0.4,1.4,0.6
			c0.9,0.5,1.7,1.2,2.3,1.9c1.3,1.5,1.9,3.3,2.2,5c0.3,1.7,0.2,3.4-0.2,5.1c-0.4,1.7-1.1,3.3-2.3,4.7c-1.1,1.4-2.7,2.5-4.5,3.1
			l1.9-1.9c-1.4,3.9-2.7,7.9-3.9,11.9c-1.3,4-2.5,8-3.7,12c-1.2,4-2.4,8-3.5,12.1c-1.1,4-2.2,8.1-3.3,12.1l-3.2,12.2
			c-1,4.1-2.1,8.1-3.1,12.2l-3,12.2l-3,12.2l-2.9,12.2l-1.4,6.1l-1.4,6.1c-1.8,8.2-3.6,16.4-5.3,24.6c-0.9,4.1-1.7,8.2-2.5,12.3
			c-0.8,4.1-1.6,8.2-2.3,12.4l-1.1,6.2l-1,6.2C46.7,221.8,45.9,225.9,44.5,230z"/>
	</g>
	<path d="M102.9,94.9C97.2,83.6,83.6,78.1,71.6,77C60.9,76,49.7,79.3,43,88.2c-3.3,4.4-5.1,9.8-5.7,15.2c-0.6,6.1,1.4,11.9,1.1,17.9
		c-0.3,6.5-4.7,10.8-8.8,15.3c-3.2,3.4-5.7,7.2-7.8,11.4c-9.4,18.4-4.1,32.4,0.6,38.9c7,9.7,16.5,14,28,16
		c13.9,2.4,31.1-0.5,41.3-10.7c8.9-8.9,11-20.7,8.8-32.7c-1-5.6-3.6-10.3-5.7-15.4c-1.8-4.4-1.8-8.4,1.1-12.2
		c4.3-5.7,7.4-11.1,8.8-18.2C105.9,107.4,105.9,100.7,102.9,94.9C101.1,91.3,104.8,98.5,102.9,94.9z M26.5,159.8
		c2.1-10.6,6.4-15,10.6-19.4c2.5-2.6,5-5.2,6.8-8.9c3.6-7.4,2.8-12.6,2-17.7c-0.5-3.3-1-6.8-0.3-11.3c1.7-11.1,10-17.7,22.1-17.7
		c2.4,0,4.9,0.3,7.4,0.8c15.9,3.3,21.2,10,18.8,23.8c-1.2,7-3.6,10-6.2,13.2c-2.3,2.8-4.8,6-6.2,11.5c-1.7,6.6,0.5,11.1,2.6,15.5
		c2.5,5.2,5.2,10.6,2.8,22.1c-2.2,10.7-13.8,18.2-28.2,18.2c-2.7,0-5.5-0.3-8.3-0.8c-9.5-1.8-17-6-20.9-11.8
		C26.1,172.5,25.2,166.6,26.5,159.8z"/>
	<g>
		<path d="M125.3,131.7c0,0-0.4,0.2-1.1,0.5c-0.8,0.3-1.9,0.7-3.4,1.2c-3,1-7.5,2.2-13.3,3c-5.8,0.9-12.9,1.7-21.1,2.2
			c-4.1,0.2-8.5,0.4-13.1,0.4c-4.6,0-9.5-0.1-14.5-0.6c-5.1-0.4-10.3-1.1-15.8-2.2c-5.4-1.1-11.1-2.6-16.7-5
			c-2.8-1.2-5.6-2.7-8.3-4.7c-2.6-2-5.2-4.4-7.1-7.6c-1-1.6-1.7-3.3-2.3-5.1c-0.3-0.9-0.5-1.8-0.6-2.8L7.8,110l-0.1-1.4
			c-0.2-3.7,0.3-7.4,1.8-10.9c1.4-3.4,3.5-6.5,5.8-9.1c2.3-2.6,4.9-4.9,7.5-7C28,77.4,33.6,73.9,39,70.2c5.4-3.6,10.7-7.3,15.3-11.5
			c4.6-4.2,8.3-9,10-14.5c0.4-1.4,0.8-2.8,0.9-4.2c0.1-0.7,0.1-1.4,0.2-2.1l0-1.1l0-1.2c-0.1-3-0.5-6-1.3-8.8
			c-0.8-2.8-2-5.3-3.7-7.3c-1.7-2-3.8-3.5-6.1-4.2c-2.3-0.7-4.9-0.6-7.2,0.2c-2.4,0.8-4.5,2.3-6.3,4.2c-3.6,3.9-5.3,9.4-5.7,14.9
			c0,0.7-0.1,1.4-0.1,2.1l0,0.5l0,0.5l0,1.2l0,0.6l0,0.5l0.1,1c0,0.7,0.2,1.4,0.2,2.1c0.4,2.7,1.1,5.4,2,8c1.9,5.1,4.9,9.6,8.5,13.2
			c3.6,3.7,8,6.4,12.5,8.4c2.3,1,4.6,1.8,6.9,2.4c2.3,0.6,4.6,1.1,7,1.4c1.2,0.2,2.3,0.2,3.5,0.3c1.1,0,2.3,0.1,3.4,0.1
			c2,0,4.1-0.3,6-0.8c3.8-1.1,7.1-3.2,9.4-5.9c2.3-2.7,3.8-6,4.3-9.2c0.5-3.2-0.1-6.3-1.2-8.8c-1.1-2.5-2.8-4.5-4.5-5.9
			c-1.7-1.4-3.4-2.4-4.8-3c-1.4-0.7-2.5-1-3.3-1.3c-0.8-0.2-1.2-0.3-1.2-0.3s0.1-0.1,0.4-0.2c0.2-0.1,0.6-0.3,1.1-0.5
			c0.9-0.3,2.4-0.7,4.2-0.6c1.8,0.1,4.2,0.6,6.5,2.1c2.3,1.5,4.7,3.9,6.6,7.1c1.8,3.3,2.9,7.5,2.4,11.9c-0.4,4.4-2.2,8.9-5.3,12.7
			c-3.1,3.8-7.5,6.7-12.5,8.2c-2.5,0.8-5.1,1.2-7.9,1.3c-1.3,0-2.5,0-3.8,0c-1.3-0.1-2.6-0.1-3.9-0.3c-2.6-0.2-5.3-0.7-8-1.3
			c-2.7-0.6-5.4-1.4-8.1-2.5c-5.4-2.2-10.6-5.4-15-9.8C36,65.5,32.2,60.1,30,53.9c-1.2-3.1-2-6.3-2.5-9.6c-0.1-0.8-0.2-1.6-0.3-2.5
			l-0.1-1.3l0-0.7l0-0.6l0-1.2l0-0.7l0-0.6c0-0.8,0.1-1.7,0.1-2.6c0.3-3.4,0.9-6.9,2.1-10.3c1.2-3.4,3.1-6.7,5.6-9.5
			c2.6-2.8,5.9-5.1,9.7-6.4c3.8-1.3,8.1-1.4,12-0.2c4,1.2,7.4,3.6,10,6.7c2.5,3.1,4.2,6.6,5.2,10.2c1,3.6,1.5,7.2,1.6,10.9l0,1.3
			l0,1.4c-0.1,0.9-0.1,1.9-0.2,2.8c-0.2,1.9-0.7,3.7-1.2,5.5c-1.1,3.6-2.9,7-5,10c-2.1,3-4.6,5.6-7.1,8C54.6,69.5,49,73.3,43.6,77
			c-5.4,3.7-10.8,7.2-15.6,11.1c-4.7,3.8-8.8,8-10.7,12.8c-0.5,1.2-0.8,2.4-1,3.6c-0.2,1.2-0.3,2.5-0.2,3.7l0,0.8l0.1,1.1
			c0.1,0.5,0.2,1.1,0.3,1.6c0.3,1.1,0.8,2.1,1.3,3.1c1.2,2,2.9,3.8,5,5.3c2,1.5,4.3,2.8,6.7,4c4.8,2.3,9.9,3.8,15,5
			c5.1,1.2,10.1,1.9,14.9,2.5c2.4,0.3,4.8,0.5,7.1,0.7c2.3,0.2,4.6,0.4,6.9,0.5c4.5,0.2,8.7,0.3,12.7,0.4c8,0.1,15-0.3,20.8-0.7
			c5.8-0.4,10.3-0.7,13.4-0.7c1.6,0,2.8,0,3.6,0C124.9,131.7,125.3,131.7,125.3,131.7z"/>
	</g>
</g>
</svg>
